<?xml version="1.0" encoding="UTF-8" standalone="no"?>
<svg
   xmlns:dc="http://purl.org/dc/elements/1.1/"
   xmlns:cc="http://creativecommons.org/ns#"
   xmlns:rdf="http://www.w3.org/1999/02/22-rdf-syntax-ns#"
   xmlns:svg="http://www.w3.org/2000/svg"
   xmlns="http://www.w3.org/2000/svg"
   xmlns:sodipodi="http://sodipodi.sourceforge.net/DTD/sodipodi-0.dtd"
   xmlns:inkscape="http://www.inkscape.org/namespaces/inkscape"
   viewBox="0 0 823.14339 311.53006"
   id="gearlogo"
   version="1.1"
   inkscape:version="0.91 r13725"
   sodipodi:docname="GGF_logo.svg"
   width="823.14337"
   height="311.53006">
  <metadata
     id="metadata4211">
    <rdf:RDF>
      <cc:Work
         rdf:about="">
        <dc:format>image/svg+xml</dc:format>
        <dc:type
           rdf:resource="http://purl.org/dc/dcmitype/StillImage" />
        <dc:title></dc:title>
      </cc:Work>
    </rdf:RDF>
  </metadata>
  <defs
     id="defs4209" />
  <sodipodi:namedview
     pagecolor="#ffffff"
     bordercolor="#666666"
     borderopacity="1"
     objecttolerance="10"
     gridtolerance="10"
     guidetolerance="10"
     inkscape:pageopacity="0"
     inkscape:pageshadow="2"
     inkscape:window-width="1920"
     inkscape:window-height="1018"
     id="namedview4207"
     showgrid="false"
     fit-margin-top="10"
     fit-margin-right="10"
     fit-margin-bottom="10"
     fit-margin-left="10"
     inkscape:zoom="1"
     inkscape:cx="424.371"
     inkscape:cy="80.193276"
     inkscape:window-x="-8"
     inkscape:window-y="-8"
     inkscape:window-maximized="1"
     inkscape:current-layer="gearlogo" />
  <g
     id="g4137"
     style="fill:#5e5e5e;stroke:#5e5e5e"
     transform="translate(-101.81009,-140.71045)">
    <g
       id="shadowG"
       class="rotate">
      <path
         d="m 201.4097,156.08545 -3.42968,13.53516 c -11.78824,2.36537 -22.99795,7.02032 -32.99414,13.70117 l -12.02149,-7.16016 -20.59375,20.5918 7.17188,12.04297 c -6.65,9.99209 -11.27878,21.1898 -13.625,32.96094 l -13.60743,3.44726 0,29.12305 13.5293,3.42773 c 2.36716,11.78866 7.02412,22.9984 13.70703,32.99414 l -7.16015,12.02344 20.59375,20.5918 12.04492,-7.17383 c 9.99034,6.64631 21.18527,11.27238 32.95312,13.61719 l 3.45118,13.61719 29.12304,0 3.43164,-13.54297 c 11.78212,-2.36756 22.98566,-7.02244 32.97656,-13.70118 l 12.03711,7.16993 20.59375,-20.59375 -7.18359,-12.06055 c 6.64306,-9.98594 11.26772,-21.17537 13.61328,-32.9375 l 13.63086,-3.45313 0,-29.12304 -13.55078,-3.4336 c -9.64609,-7.38133 -22.27781,-7.16041 -20.28125,-0.17773 1.56153,5.93495 2.36029,12.04472 2.37695,18.18164 -7.2e-4,39.88902 -32.33754,72.22497 -72.22656,72.22461 -39.88825,-7.2e-4 -72.22389,-32.33636 -72.22461,-72.22461 -3.6e-4,-39.88902 32.33559,-72.22584 72.22461,-72.22656 25.60695,0.0354 49.28082,13.62682 62.22266,35.72265 3.85345,5.8356 12.89288,-0.79656 14.21289,-14.47265 l 7.16992,-12.03711 -20.5918,-20.59375 -12.05468,7.17969 c -9.98769,-6.64675 -21.1799,-11.27413 -32.94532,-13.6211 l -3.45117,-13.61914 z"
         id="path4140"
         inkscape:connector-curvature="0"
         style="stroke-width:0.71700001;stroke-linecap:round;stroke-linejoin:round" />
      <path
         d="m 215.97062,259.7526 85.78674,0"
         id="path4142"
         inkscape:connector-curvature="0"
         style="fill-rule:evenodd;stroke-width:22;stroke-linecap:round" />
    </g>
    <g
       id="shadowE"
       class="rotate_inverse">
      <path
         d="m 361.59611,169.55304 2.01107,13.81734 c -9.98572,6.69648 -18.56077,15.28686 -25.2394,25.28454 l -13.84648,-2.0147 -11.146,26.90523 11.23459,8.38169 c -2.31999,11.77634 -2.31124,23.89303 0.0258,35.666 l -11.25242,8.39219 11.14491,26.90619 13.81118,-2.01062 c 6.6983,9.98542 15.29055,18.55973 25.28996,25.23715 l -2.01395,13.84828 26.90629,11.14346 8.38275,-11.23715 c 11.7733,2.31726 23.88639,2.30707 35.65578,-0.03 l 8.39955,11.25994 26.90618,-11.14491 -2.01225,-13.8253 c 9.97924,-6.69616 18.54861,-15.28412 25.22316,-25.27783 l 13.86465,2.01775 11.14526,-26.90703 -11.1449,-8.31315 c -5.6403,-12.50058 -18.23352,-12.12024 -19.17607,-5.33746 -4.27467,24.28165 -20.64016,44.70534 -43.40624,54.16983 -36.85221,15.26391 -79.10076,-2.23601 -94.366,-39.08767 -15.2652,-36.85251 2.23456,-79.10227 39.08693,-94.3678 36.85322,-15.2655 79.10373,2.23524 94.36855,39.08873 2.28198,5.58811 3.85448,11.44025 4.68067,17.41953 1.04908,7.95349 12.89062,4.36303 18.7208,-7.63813 l 11.22832,-8.37377 -11.1449,-26.90618 -13.83327,2.01342 c -6.69428,-9.97807 -15.27982,-18.54693 -25.2709,-25.22178 l 2.01774,-13.86465 -26.90523,-11.14601 -8.38953,11.2463 c -11.77102,-2.31867 -23.8821,-2.31074 -35.65007,0.0234 l -8.40029,-11.26174 z"
         id="path4145"
         inkscape:connector-curvature="0"
         style="stroke-width:0.71700001;stroke-linecap:round;stroke-linejoin:round" />
      <path
         d="M 366.48159,279.73793 499.0583,224.82285"
         id="path4147"
         inkscape:connector-curvature="0"
         style="fill-rule:evenodd;stroke-width:22;stroke-linecap:round" />
    </g>
    <g
       id="shadowA"
       class="rotate"
       style="stroke-linecap:round">
      <path
         d="m 599.31172,156.08545 -3.42968,13.53516 c -11.78824,2.36537 -22.99795,7.02032 -32.99414,13.70117 l -12.02149,-7.16016 -20.59375,20.5918 7.17188,12.04297 c -6.65,9.99209 -11.27878,21.1898 -13.625,32.96094 l -13.60743,3.44726 0,29.12305 13.5293,3.42773 c 2.36716,11.78866 7.02412,22.9984 13.70703,32.99414 l -7.16015,12.02344 20.59375,20.5918 11.98242,-7.13672 c 15.13551,-0.78596 22.71248,-9.60949 14.3418,-14.3418 -22.00517,-12.96672 -35.52559,-36.59143 -35.5586,-62.13281 -3.6e-4,-39.88902 32.33559,-72.22584 72.22461,-72.22656 39.88978,-3.6e-4 72.22692,32.33678 72.22656,72.22656 -0.0354,25.55193 -13.56907,49.18351 -35.58984,62.14453 -8.45675,4.24082 0.40312,13.51146 14.35351,14.2832 l 12.03711,7.16993 20.59375,-20.59375 -7.18359,-12.06055 c 6.64306,-9.98594 11.26772,-21.17537 13.61328,-32.9375 l 13.63086,-3.45313 0,-29.12304 -13.55078,-3.4336 c -2.36626,-11.78033 -7.01911,-22.98247 -13.69531,-32.97265 l 7.16992,-12.03711 -20.5918,-20.59375 -12.05468,7.17969 c -9.98769,-6.64675 -21.1799,-11.27413 -32.94532,-13.6211 l -3.45117,-13.61914 z"
         id="path4150"
         inkscape:connector-curvature="0"
         style="stroke-width:0.71700001;stroke-linejoin:round" />
      <path
         d="m 526.15938,259.7526 177,0"
         id="path4152"
         inkscape:connector-curvature="0"
         style="fill-rule:evenodd;stroke-width:22" />
    </g>
    <g
       id="shadowR"
       class="rotate_inverse">
      <path
         d="m 839.19729,158.39835 -8.34829,11.19238 c -11.7961,-2.32585 -23.9339,-2.31501 -35.72582,0.0319 l -8.36634,-11.21555 -26.90628,11.14345 2.01731,13.87081 c -9.96761,6.68665 -18.52922,15.26062 -25.20147,25.23788 l -13.89083,-2.02249 -11.14491,26.90619 11.18771,8.34425 c -2.32436,11.79718 -2.31167,23.93577 0.0373,35.72807 l -11.21629,8.36814 11.14601,26.90523 13.87336,-2.01837 0.01,0.0126 c 14.25903,7.60709 25.35379,0.66293 18.67722,-7.73636 -15.38495,-20.40324 -18.84355,-47.4173 -9.095,-71.03837 15.26453,-36.85278 57.51382,-54.35368 94.36674,-39.08948 23.61231,9.81864 40.2724,31.39123 43.8028,56.71874 1.63873,9.39643 13.22743,6.253 18.6824,-7.83571 l 11.23055,-8.37703 -11.14346,-26.90628 -13.88462,2.02004 c -6.68382,-9.96292 -15.25325,-18.52114 -25.22494,-25.19188 l 2.02336,-13.90315 z m 45.27062,111.28144 c -0.82854,6.08075 -2.42869,12.03111 -4.7618,17.70726 -9.80641,23.58202 -31.3379,40.23175 -56.62861,43.78939 -12.89299,1.15579 -7.23225,12.66061 7.76117,18.69384 l 8.37703,11.23055 26.90703,-11.14526 -2.0214,-13.89153 c 9.95884,-6.68362 18.51348,-15.25152 25.18167,-25.22071 l 13.91473,2.02603 11.1449,-26.90618 -11.2053,-8.35789 c -4.69724,-11.2918 -17.88598,-15.38068 -18.66942,-7.9255 z"
         id="path4155"
         inkscape:connector-curvature="0"
         style="stroke-width:0.71700001;stroke-linecap:round;stroke-linejoin:round" />
      <path
         d="m 764.73936,239.76538 132.57672,54.91507"
         id="path4157"
         inkscape:connector-curvature="0"
         style="fill-rule:evenodd;stroke-width:22;stroke-linecap:round" />
      <path
         d="m 894.31886,226.13572 c -26.3149,18.09864 -81.87791,20.98208 -118.95488,18.03052"
         id="path4159"
         inkscape:connector-curvature="0"
         style="fill-rule:evenodd;stroke-width:22" />
    </g>
  </g>
  <g
     id="g4161"
     style="fill:#989898;stroke:#989898"
     transform="translate(-101.81009,-140.71045)">
    <g
       id="letterG"
       class="rotate">
      <path
         d="m 201.4097,151.21045 -3.42968,13.53516 c -11.78824,2.36537 -22.99795,7.02032 -32.99414,13.70117 l -12.02149,-7.16016 -20.59375,20.5918 7.17188,12.04297 c -6.65,9.99209 -11.27878,21.1898 -13.625,32.96094 l -13.60743,3.44726 0,29.12305 13.5293,3.42773 c 2.36716,11.78866 7.02412,22.9984 13.70703,32.99414 l -7.16015,12.02344 20.59375,20.5918 12.04492,-7.17383 c 9.99034,6.64631 21.18527,11.27238 32.95312,13.61719 l 3.45118,13.61719 29.12304,0 3.43164,-13.54297 c 11.78212,-2.36756 22.98566,-7.02244 32.97656,-13.70118 l 12.03711,7.16993 20.59375,-20.59375 -7.18359,-12.06055 c 6.64306,-9.98594 11.26772,-21.17537 13.61328,-32.9375 l 13.63086,-3.45313 0,-29.12304 -13.55078,-3.4336 c -9.64609,-7.38133 -22.27781,-7.16041 -20.28125,-0.17773 1.56153,5.93495 2.36029,12.04472 2.37695,18.18164 -7.2e-4,39.88902 -32.33754,72.22497 -72.22656,72.22461 -39.88825,-7.2e-4 -72.22389,-32.33636 -72.22461,-72.22461 -3.6e-4,-39.88902 32.33559,-72.22584 72.22461,-72.22656 25.60695,0.0354 49.28082,13.62682 62.22266,35.72265 3.85345,5.8356 12.89288,-0.79656 14.21289,-14.47265 l 7.16992,-12.03711 -20.5918,-20.59375 -12.05468,7.17969 c -9.98769,-6.64675 -21.1799,-11.27413 -32.94532,-13.6211 l -3.45117,-13.61914 z"
         id="path4164"
         inkscape:connector-curvature="0"
         style="fill:#989898" />
      <path
         d="m 215.97062,254.8776 85.78674,0"
         id="path4166"
         inkscape:connector-curvature="0"
         style="stroke-width:22;stroke-linecap:round" />
    </g>
    <g
       id="letterE"
       class="rotate_inverse">
      <path
         d="m 361.59611,164.67804 2.01107,13.81734 c -9.98572,6.69648 -18.56077,15.28686 -25.2394,25.28454 l -13.84648,-2.0147 -11.146,26.90523 11.23459,8.38169 c -2.31999,11.77634 -2.31124,23.89303 0.0258,35.666 l -11.25242,8.39219 11.14491,26.90619 13.81118,-2.01062 c 6.6983,9.98542 15.29055,18.55973 25.28996,25.23715 l -2.01395,13.84828 26.90629,11.14346 8.38275,-11.23715 c 11.7733,2.31726 23.88639,2.30707 35.65578,-0.03 l 8.39955,11.25994 26.90618,-11.14491 -2.01225,-13.8253 c 9.97924,-6.69616 18.54861,-15.28412 25.22316,-25.27783 l 13.86465,2.01775 11.14526,-26.90703 -11.1449,-8.31315 c -5.6403,-12.50058 -18.23352,-12.12024 -19.17607,-5.33746 -4.27467,24.28165 -20.64016,44.70534 -43.40624,54.16983 -36.85221,15.26391 -79.10076,-2.23601 -94.366,-39.08767 -15.2652,-36.85251 2.23456,-79.10227 39.08693,-94.3678 36.85322,-15.2655 79.10373,2.23524 94.36855,39.08873 2.28198,5.58811 3.85448,11.44025 4.68067,17.41953 1.04908,7.95349 12.89062,4.36303 18.7208,-7.63813 l 11.22832,-8.37377 -11.1449,-26.90618 -13.83327,2.01342 c -6.69428,-9.97807 -15.27982,-18.54693 -25.2709,-25.22178 l 2.01774,-13.86465 -26.90523,-11.14601 -8.38953,11.2463 c -11.77102,-2.31867 -23.8821,-2.31074 -35.65007,0.0234 l -8.40029,-11.26174 z"
         id="path4169"
         inkscape:connector-curvature="0" />
      <path
         d="M 366.48159,274.86293 499.0583,219.94785"
         id="path4171"
         inkscape:connector-curvature="0"
         style="fill:none;stroke:#989898;stroke-width:22;stroke-linecap:round" />
    </g>
    <g
       id="letterA"
       class="rotate">
      <path
         d="m 599.31172,151.21045 -3.42968,13.53516 c -11.78824,2.36537 -22.99795,7.02032 -32.99414,13.70117 l -12.02149,-7.16016 -20.59375,20.5918 7.17188,12.04297 c -6.65,9.99209 -11.27878,21.1898 -13.625,32.96094 l -13.60743,3.44726 0,29.12305 13.5293,3.42773 c 2.36716,11.78866 7.02412,22.9984 13.70703,32.99414 l -7.16015,12.02344 20.59375,20.5918 11.98242,-7.13672 c 15.13551,-0.78596 22.71248,-9.60949 14.3418,-14.3418 -22.00517,-12.96672 -35.52559,-36.59143 -35.5586,-62.13281 -3.6e-4,-39.88902 32.33559,-72.22584 72.22461,-72.22656 39.88978,-3.6e-4 72.22692,32.33678 72.22656,72.22656 -0.0354,25.55193 -13.56907,49.18351 -35.58984,62.14453 -8.45675,4.24082 0.40312,13.51146 14.35351,14.2832 l 12.03711,7.16993 20.59375,-20.59375 -7.18359,-12.06055 c 6.64306,-9.98594 11.26772,-21.17537 13.61328,-32.9375 l 13.63086,-3.45313 0,-29.12304 -13.55078,-3.4336 c -2.36626,-11.78033 -7.01911,-22.98247 -13.69531,-32.97265 l 7.16992,-12.03711 -20.5918,-20.59375 -12.05468,7.17969 c -9.98769,-6.64675 -21.1799,-11.27413 -32.94532,-13.6211 l -3.45117,-13.61914 z"
         id="path4174"
         inkscape:connector-curvature="0" />
      <path
         d="m 526.15938,254.8776 177,0"
         id="path4176"
         inkscape:connector-curvature="0"
         style="stroke-width:22;stroke-linecap:round" />
    </g>
    <g
       id="letterR"
       class="rotate_inverse">
      <path
         d="m 839.19729,153.52335 -8.34829,11.19238 c -11.7961,-2.32585 -23.9339,-2.31501 -35.72582,0.0319 l -8.36634,-11.21555 -26.90628,11.14345 2.01731,13.87081 c -9.96761,6.68665 -18.52922,15.26062 -25.20147,25.23788 l -13.89083,-2.02249 -11.14491,26.90619 11.18771,8.34425 c -2.32436,11.79718 -2.31167,23.93577 0.0373,35.72807 l -11.21629,8.36814 11.14601,26.90523 13.87336,-2.01837 0.01,0.0126 c 14.25903,7.60709 25.35379,0.66293 18.67722,-7.73636 -15.38495,-20.40324 -18.84355,-47.4173 -9.095,-71.03837 15.26453,-36.85278 57.51382,-54.35368 94.36674,-39.08948 23.61231,9.81864 40.2724,31.39123 43.8028,56.71874 1.63873,9.39643 13.22743,6.253 18.6824,-7.83571 l 11.23055,-8.37703 -11.14346,-26.90628 -13.88462,2.02004 c -6.68382,-9.96292 -15.25325,-18.52114 -25.22494,-25.19188 l 2.02336,-13.90315 z m 45.27062,111.28144 c -0.82854,6.08075 -2.42869,12.03111 -4.7618,17.70726 -9.80641,23.58202 -31.3379,40.23175 -56.62861,43.78939 -12.89299,1.15579 -7.23225,12.66061 7.76117,18.69384 l 8.37703,11.23055 26.90703,-11.14526 -2.0214,-13.89153 c 9.95884,-6.68362 18.51348,-15.25152 25.18167,-25.22071 l 13.91473,2.02603 11.1449,-26.90618 -11.2053,-8.35789 c -4.69724,-11.2918 -17.88598,-15.38068 -18.66942,-7.9255 z"
         id="path4179"
         inkscape:connector-curvature="0" />
      <path
         d="m 764.73936,234.89038 132.57672,54.91507"
         id="path4181"
         inkscape:connector-curvature="0"
         style="stroke-width:22;stroke-linecap:round" />
      <path
         d="m 894.31886,221.26072 c -26.3149,18.09864 -81.87791,20.98208 -118.95488,18.03052"
         id="path4183"
         inkscape:connector-curvature="0"
         style="stroke-width:22" />
    </g>
  </g>
  <g
     font-size="40"
     word-spacing="0"
     id="g4185"
     style="font-size:40px;font-family:sans-serif;word-spacing:0;fill:#5e5e5e"
     transform="translate(-101.81009,-140.71045)">
    <text
       x="109.74738"
       y="744.65356"
       style="line-height:125%;letter-spacing:0"
       letter-spacing="0"
       transform="translate(0,-303.165)"
       id="text4187"
       sodipodi:linespacing="125%">
      <tspan
         x="109.74738"
         y="744.65356"
         style="font-weight:bold;font-size:70px;font-family:Calibri;-inkscape-font-specification:'Calibri Bold';letter-spacing:12"
         font-weight="bold"
         font-size="70"
         letter-spacing="12"
         id="tspan4189">GAME</tspan>
    </text>
    <text
       x="422.5"
       y="744.61218"
       style="line-height:125%;letter-spacing:12"
       letter-spacing="12"
       transform="translate(0,-303.165)"
       id="text4191"
       sodipodi:linespacing="125%">
      <tspan
         x="422.5"
         y="744.61218"
         style="font-weight:bold;font-size:70px;font-family:Calibri;-inkscape-font-specification:'Calibri Bold'"
         font-weight="bold"
         font-size="70"
         id="tspan4193">FRAMEWORK</tspan>
    </text>
  </g>
  <g
     font-size="40"
     word-spacing="0"
     id="g4195"
     style="font-size:40px;font-family:sans-serif;word-spacing:0;fill:#989898"
     transform="translate(-101.81009,-140.71045)">
    <text
       x="109.74738"
       y="744.65356"
       style="line-height:125%;letter-spacing:0"
       letter-spacing="0"
       transform="translate(0,-308.268)"
       id="text4197"
       sodipodi:linespacing="125%">
      <tspan
         x="109.74738"
         y="744.65356"
         style="font-weight:bold;font-size:70px;font-family:Calibri;-inkscape-font-specification:'Calibri Bold';letter-spacing:12"
         font-weight="bold"
         font-size="70"
         letter-spacing="12"
         id="tspan4199">GAME</tspan>
    </text>
    <text
       x="422.5"
       y="744.61218"
       style="line-height:125%;letter-spacing:12"
       letter-spacing="12"
       transform="translate(0,-308.268)"
       id="text4201"
       sodipodi:linespacing="125%">
      <tspan
         x="422.5"
         y="744.61218"
         style="font-weight:bold;font-size:70px;font-family:Calibri;-inkscape-font-specification:'Calibri Bold'"
         font-weight="bold"
         font-size="70"
         id="tspan4203">FRAMEWORK</tspan>
    </text>
  </g>
  <style
     type="text/css"
     id="style4205">
    @keyframes rotate {
      0%{
        transform: rotate(0deg);
      }
      6.25%{
        transform: rotate(45deg);
      }
      12.5%{
        transform: rotate(45deg);
      }
      18.75%{
        transform: rotate(90deg);
      }
      25%{
        transform: rotate(90deg);
      }
      31.25%{
        transform: rotate(135deg);
      }
      37.5%{
        transform: rotate(135deg);
      }
      43.75%{
        transform: rotate(180deg);
      }
      50%{
        transform: rotate(180deg);
      }
      56.25%{
        transform: rotate(225deg);
      }
      62.5%{
        transform: rotate(225deg);
      }
      68.75%{
        transform: rotate(270deg);
      }
      75%{
        transform: rotate(270deg);
      }
      81.25%{
        transform: rotate(315deg);
      }
      87.5%{
        transform: rotate(315deg);
      }
      93.75%{
        transform: rotate(360deg);
      }
      100%{
        transform: rotate(360deg);
      }
    }
    @keyframes rotate_i {
      0%{
        transform: rotate(-0deg);
      }
      6.25%{
        transform: rotate(-45deg);
      }
      12.5%{
        transform: rotate(-45deg);
      }
      18.75%{
        transform: rotate(-90deg);
      }
      25%{
        transform: rotate(-90deg);
      }
      31.25%{
        transform: rotate(-135deg);
      }
      37.5%{
        transform: rotate(-135deg);
      }
      43.75%{
        transform: rotate(-180deg);
      }
      50%{
        transform: rotate(-180deg);
      }
      56.25%{
        transform: rotate(-225deg);
      }
      62.5%{
        transform: rotate(-225deg);
      }
      68.75%{
        transform: rotate(-270deg);
      }
      75%{
        transform: rotate(-270deg);
      }
      81.25%{
        transform: rotate(-315deg);
      }
      87.5%{
        transform: rotate(-315deg);
      }
      93.75%{
        transform: rotate(-360deg);
      }
      100%{
        transform: rotate(-360deg);
      }
    }
    #gearlogo #letterG, #gearlogo #shadowG, #gearlogo #letterE, #gearlogo #shadowE{
      transform-origin: 50% 50%;
    }
    #gearlogo #letterA, #gearlogo #shadowA{
      transform-origin: 50% 55.376%;

    }
    #gearlogo #letterR, #gearlogo #shadowR{
      transform-origin: 50% 50.002%;
    }
    #gearlogo .rotate{
      animation: rotate linear 10s infinite;
      animation-delay: 10s;
      -webkit-animation-delay: 10s;
    }
    #gearlogo .rotate_inverse{
      animation: rotate_i linear 10s infinite;
      animation-delay: 10s;
      -webkit-animation-delay: 10s;
    }
  </style>
</svg>
